<?xml version="1.0" encoding="UTF-8"?> <!-- Generator: Adobe Illustrator 25.2.0, SVG Export Plug-In . SVG Version: 6.00 Build 0) --> <svg xmlns="http://www.w3.org/2000/svg" xmlns:xlink="http://www.w3.org/1999/xlink" version="1.1" x="0px" y="0px" viewBox="0 0 540 540" style="enable-background:new 0 0 540 540;" xml:space="preserve"> <style type="text/css"> .st0{fill:#D4E7D8;} .st1{fill:#539E65;} .st2{fill:#FFFFFF;} .st3{fill:#7C797A;} .st4{fill:#D3D2D3;} .st5{fill:#504C4D;} .st6{clip-path:url(#SVGID_2_);} .st7{fill:#143059;} .st8{fill:#A1ACBD;} .st9{fill:#43597A;} .st10{fill:#BBB1CC;} .st11{fill:#E8EAEE;} .st12{fill:#D0D6DE;} .st13{clip-path:url(#SVGID_4_);} .st14{fill-rule:evenodd;clip-rule:evenodd;fill:#7EB68B;} </style> <g id="Layer_1"> <g> <rect class="st0" width="540" height="540"></rect> </g> </g> <g id="Layer_2"> <g id="Person"> <circle class="st1" cx="262.2" cy="279.3" r="176.8"></circle> <rect x="169.1" y="169.3" class="st2" width="185.8" height="255.5"></rect> <path class="st3" d="M207.2,131.2h109.6c21,0,38.1,17.1,38.1,38.1l0,0l0,0H169.1l0,0l0,0C169.1,148.2,186.2,131.2,207.2,131.2z"></path> <path class="st3" d="M316.8,462.9H207.2c-21,0-38.1-17.1-38.1-38.1l0,0l0,0h185.8l0,0l0,0C354.9,445.8,337.8,462.9,316.8,462.9z"></path> <path class="st4" d="M244.1,146.9h35.8c1.8,0,3.3,1.5,3.3,3.3l0,0c0,1.8-1.5,3.3-3.3,3.3h-35.8c-1.8,0-3.3-1.5-3.3-3.3l0,0 C240.8,148.4,242.3,146.9,244.1,146.9z"></path> <circle class="st4" cx="300.3" cy="150.2" r="4.5"></circle> <path class="st3" d="M354.9,213.2L354.9,213.2L354.9,213.2V188l0,0l0,0c1.7,0,3,1.3,3,3v19.2C357.9,211.8,356.5,213.2,354.9,213.2 C354.9,213.2,354.9,213.2,354.9,213.2z"></path> <path class="st3" d="M354.9,249.6L354.9,249.6L354.9,249.6v-25.2l0,0l0,0c1.7,0,3,1.3,3,3v19.2 C357.9,248.2,356.5,249.6,354.9,249.6z"></path> <circle class="st5" cx="262" cy="443.8" r="9.7"></circle> <path class="st2" d="M343.3,76.3h158.6c2.6,0,4.6,2.1,4.6,4.6v96.2c0,2.6-2.1,4.6-4.6,4.6l0,0H397.6l-28.3,24.8v-24.8h-25.9 c-2.6,0-4.6-2.1-4.6-4.6c0,0,0,0,0,0V80.9C338.7,78.4,340.8,76.3,343.3,76.3L343.3,76.3z"></path> <g> <defs> <path id="SVGID_1_" d="M343.3,76.3h158.6c2.6,0,4.6,2.1,4.6,4.6v96.2c0,2.6-2.1,4.6-4.6,4.6l0,0H397.6l-28.3,24.8v-24.8h-25.9 c-2.6,0-4.6-2.1-4.6-4.6c0,0,0,0,0,0V80.9C338.7,78.4,340.8,76.3,343.3,76.3L343.3,76.3z"></path> </defs> <clipPath id="SVGID_2_"> <use xlink:href="#SVGID_1_" style="overflow:visible;"></use> </clipPath> <g class="st6"> <path class="st7" d="M467.4,174.2l-6.9-3.1c0.2-0.8,0.3-1.6,0.3-2.4c0-11.4-16.5-20.7-36.9-20.7s-36.9,9.3-36.9,20.7 c0,0.8,0.1,1.6,0.3,2.4l-6.9,3.1c-6.5,2.9-11.6,9.5-11.6,16.7v60.3h48.1v-2.8c0-5.5-2-56.1-5.6-60.2c8.3,1.6,16.8,1.6,25.1,0 c-3.6,4.1-5.6,54.7-5.6,60.2v2.8h47.3v-60.3C478.1,183.7,473.9,177.2,467.4,174.2z"></path> <path class="st8" d="M436.6,187.9l17.5-19.8l-13.7-6.2v0.1h-33.1v-0.1l-13.7,6.2l17.5,19.7c3.7,4.2,5.8,54.8,5.8,60.5v2.9h14 v-2.9C430.8,242.7,432.9,192.1,436.6,187.9z"></path> <path class="st9" d="M393.6,168.1l13.7-6.1v-3c-0.7-0.7-1.3-1.6-1.8-2.4c-0.8,0.3-1.5,0.7-2.2,1 C394.6,161.9,393.6,168.1,393.6,168.1z"></path> <polygon class="st10" points="440.4,159 440.4,159 440.4,159 "></polygon> <path class="st9" d="M442.2,156.4c-0.5,0.9-1.1,1.7-1.8,2.5v3l13.6,6.1C454.1,168,452.9,160.8,442.2,156.4z"></path> <path class="st9" d="M424.2,154.9c-8.6,0.4-17.8,0.3-20.1,2.4s2.3,4.3,2.3,4.3l22.9,0.1l7.7,0.9l-0.1-0.3l3-1.1 c0,0,3.6-4.1,2.3-4.7C434.6,153.1,426.7,154.8,424.2,154.9z"></path> <path class="st11" d="M443.4,145.8c1.8-0.9,4-4,5.5-8c2-5.3,2-10.1,0.1-10.9c-0.3-0.1-0.6-0.1-0.9-0.1c-0.7,0.2-1.4,0.7-1.6,1.4 l-1.8,4.2l-1.8-3.5c-0.5-1-0.6-2.2-0.4-3.3l1-3.8c1-3.9-1.3-8-5.3-9c-0.9-0.2-1.9-0.3-2.9-0.2l-7.6,1c-2.7,0.4-5.3,0.4-8,0 l-7.6-1c-4-0.6-7.8,2.3-8.3,6.3c-0.1,1-0.1,1.9,0.2,2.9l1,3.8c0.3,1.1,0.2,2.3-0.4,3.3l-1.7,3.5l-1.8-4.2 c-0.3-0.7-0.9-1.2-1.6-1.4c-0.3-0.1-0.6,0-0.9,0.1c-2,0.7-1.9,5.6,0.1,10.9c1.5,4,3.7,7.1,5.5,8"></path> <path class="st9" d="M399.6,126.8c0.7,0.2,1.3,0.7,1.6,1.4l1.8,4.2l1.8-3.5c0.5-1,0.6-2.2,0.4-3.3l-1-3.8c-1-3.9,1.3-8,5.3-9 c0.9-0.2,1.9-0.3,2.9-0.2l7.6,1c2.7,0.4,5.3,0.4,8,0l7.6-1c4-0.6,7.8,2.3,8.3,6.3c0.1,1,0.1,1.9-0.2,2.9l-1,3.8 c-0.3,1.1-0.2,2.3,0.4,3.3l1.8,3.5l1.8-4.2c0.3-0.7,0.9-1.2,1.6-1.4c0.3-0.1,0.6,0,0.9,0.1v-19.6c0-4.2-2-8.2-5.4-10.6l-6.6-4.7 c-7.8-5.6-18.3-5.6-26.1,0l-6.6,4.7c-3.4,2.4-5.5,6.4-5.4,10.6v19.6C399.1,126.8,399.3,126.8,399.6,126.8z"></path> <path class="st12" d="M431.7,160.3c-1.3,0.9-2.8,1.3-4.4,1.3l-3.5,4.4l-3.5-4.4c-1.6,0-3.1-0.5-4.4-1.3l-8.7-10.4v12 c0,9.2,7.4,16.6,16.6,16.6c0,0,0,0,0,0l0,0c9.2,0,16.6-7.4,16.6-16.6l0,0v-12L431.7,160.3z"></path> <path class="st11" d="M443.4,145.8h-39c0.6,6.5,4.2,12.3,9.6,15.9c1,0.6,1.8,1.4,2.6,2.3c1.2,1.5,3.1,2.4,5,2.4h4.7 c1.9,0,3.8-0.9,5-2.4c0.7-0.9,1.6-1.6,2.6-2.3C439.3,158.1,442.8,152.2,443.4,145.8L443.4,145.8z"></path> </g> </g> <path class="st2" d="M145.3,285.7H35.9c-2.4,0-4.4,2-4.4,4.4l0,0v91.8c0,2.4,2,4.4,4.4,4.4c0,0,0,0,0,0h57.6l27,23.7v-23.7h24.7 c2.4,0,4.4-2,4.4-4.4c0,0,0,0,0,0v-91.7C149.7,287.7,147.7,285.7,145.3,285.7C145.3,285.7,145.3,285.7,145.3,285.7z"></path> <g> <defs> <path id="SVGID_3_" d="M145.3,285.7H35.9c-2.4,0-4.4,2-4.4,4.4l0,0v91.8c0,2.4,2,4.4,4.4,4.4c0,0,0,0,0,0h57.6l27,23.7v-23.7 h24.7c2.4,0,4.4-2,4.4-4.4c0,0,0,0,0,0v-91.7C149.7,287.7,147.7,285.7,145.3,285.7C145.3,285.7,145.3,285.7,145.3,285.7z"></path> </defs> <clipPath id="SVGID_4_"> <use xlink:href="#SVGID_3_" style="overflow:visible;"></use> </clipPath> <g class="st13"> <rect x="68.2" y="377.8" class="st9" width="44.8" height="78.2"></rect> <path class="st8" d="M107.1,365.4c-2.6-1.4-4.3-4.2-4.3-7.1v-0.1c-2.2,1.8-4.9,3-7.7,3.6c-2.8,0.6-5.8,0.5-8.6-0.2 c-2.8-0.6-5.4-1.8-7.7-3.6v0.3c0,3-1.7,5.7-4.3,7.1l-0.8,0.3L60.5,370l6.4,4.4c4.4,3.6,9.4,6.4,14.8,8.3c5.9,2,12.2,2,18.1,0 c5.4-1.9,10.4-4.7,14.8-8.3l6-4.5l-13.3-4.3L107.1,365.4z"></path> <path class="st7" d="M80.1,455.8c0-12.8-3.2-80.6-8.5-89.5L48.1,374c-3.6,1.2-5.9,4.9-5.2,8.6l2.8,73.3h34.5V455.8z"></path> <path class="st7" d="M101.5,455.8c0-12.8,3.2-80.6,8.5-89.5l23.6,7.7c3.6,1.2,5.9,4.9,5.2,8.6L136,456h-34.5V455.8z"></path> <path class="st7" d="M82.3,360.1l-11.9-8.4c-7.2-4.9-10.9-13.5-9.6-22.1c1.4-8.4,4.5-18.7,11.8-26.6 c9.7-10.3,25.9-10.9,36.2-1.2c0.4,0.4,0.8,0.8,1.2,1.2c7.3,8,10.5,18.3,11.8,26.6c1.3,8.6-2.4,17.2-9.6,22.1l-11.9,8.4H82.3z"></path> <path class="st12" d="M111.3,335.4c-0.6-0.2-1.3,0-1.8,0.4c0.7-2.6,0.9-5.3,0.5-7.9H107c0.8-2.2-1.2-9.8-2.2-10.8 c-0.5,4.1-2.4,7.9-5.2,10.8H71.4c-0.1,0.8-0.2,1.7-0.2,2.5v0.2c0,0.7,0,1.3,0.1,2c0.1,1.1,0.3,2.2,0.6,3.3 c-0.5-0.4-1.1-0.6-1.8-0.4c-1.6,0.6-1.6,4.6,0,8.9c1.2,3.3,3,5.8,4.5,6.6c1.8,9.4,10.2,13.3,14,14.6c1.3,0.5,2.7,0.5,3.9,0 c3.9-1.3,12.2-5.3,14-14.6c1.5-0.8,3.3-3.3,4.5-6.6C112.9,340,112.9,336,111.3,335.4z"></path> </g> </g> <g id="WA_Logo"> <path class="st14" d="M301.7,252.7c-21.6-21.6-56.7-21.6-78.3,0c-17.7,17.7-21.3,45.1-8.8,66.8l-7.9,28.7l29.3-7.7 c8.1,4.4,17.2,6.7,26.4,6.7l0,0c30.6,0,55.4-24.8,55.3-55.4C317.9,277.1,312,263,301.7,252.7L301.7,252.7z M262.6,337.8 L262.6,337.8c-8.2,0-16.3-2.2-23.4-6.4l-1.7-1L220,335l4.6-17l-1.1-1.7c-13.5-21.5-7-49.9,14.5-63.4s49.9-7,63.4,14.5 s7,49.9-14.5,63.4C279.7,335.4,271.2,337.8,262.6,337.8L262.6,337.8z M287.8,303.3c-1.4-0.7-8.2-4-9.5-4.5s-2.2-0.7-3.1,0.7 s-3.6,4.5-4.4,5.4s-1.6,1-3,0.3c-4.1-1.6-7.8-4-11.1-6.9c-3-2.8-5.6-6-7.7-9.6c-0.8-1.4-0.1-2.1,0.6-2.8s1.4-1.6,2.1-2.4 c0.6-0.7,1-1.5,1.4-2.3c0.4-0.8,0.3-1.7-0.1-2.4c-0.3-0.7-3.1-7.5-4.3-10.3s-2.3-2.3-3.1-2.4s-1.7,0-2.6,0 c-1.4,0-2.8,0.7-3.7,1.7c-3.2,3-4.9,7.2-4.9,11.6c0,6.8,5,13.4,5.6,14.3s9.8,14.9,23.6,20.9c2.6,1.1,5.2,2.1,7.9,2.9 c2.8,0.9,5.8,1,8.7,0.5c2.7-0.4,8.2-3.4,9.3-6.6s1.1-6,0.8-6.6S289.2,304,287.8,303.3L287.8,303.3z"></path> </g> </g> </g> </svg> 